<svg id="light" enable-background="new 0 0 24 24" height="512" viewBox="0 0 24 24" width="512" xmlns="http://www.w3.org/2000/svg"><g><path d="m8.111 16.389c-.128 0-.256-.049-.354-.146-.195-.195-.195-.512 0-.707l7.777-7.778c.195-.195.512-.195.707 0s.195.512 0 .707l-7.777 7.778c-.097.097-.225.146-.353.146z"/></g><g><path d="m15.889 16.389c-.128 0-.256-.049-.354-.146l-7.777-7.779c-.195-.195-.195-.512 0-.707s.512-.195.707 0l7.777 7.778c.195.195.195.512 0 .707-.097.098-.225.147-.353.147z"/></g><g><path d="m21.5 24h-19c-1.379 0-2.5-1.122-2.5-2.5v-19c0-1.378 1.121-2.5 2.5-2.5h19c1.379 0 2.5 1.122 2.5 2.5v19c0 1.378-1.121 2.5-2.5 2.5zm-19-23c-.827 0-1.5.673-1.5 1.5v19c0 .827.673 1.5 1.5 1.5h19c.827 0 1.5-.673 1.5-1.5v-19c0-.827-.673-1.5-1.5-1.5z"/></g></svg>