<?xml version="1.0" encoding="UTF-8"?>
<!DOCTYPE svg PUBLIC "-//W3C//DTD SVG 1.1//EN" "http://www.w3.org/Graphics/SVG/1.1/DTD/svg11.dtd">
<!-- Creator: CorelDRAW 2018 (64 Bit) -->
<svg xmlns="http://www.w3.org/2000/svg" xml:space="preserve" width="184.718mm" height="283.416mm" version="1.1" style="shape-rendering:geometricPrecision; text-rendering:geometricPrecision; image-rendering:optimizeQuality; fill-rule:evenodd; clip-rule:evenodd"
viewBox="0 0 18471.8 28341.6"
 xmlns:xlink="http://www.w3.org/1999/xlink"
 xmlns:xodm="http://www.corel.com/coreldraw/odm/2003">
 <defs>
  <style type="text/css">
   <![CDATA[
    .fil0 {fill:#4B4B4D;fill-opacity:0.968627}
   ]]>
  </style>
 </defs>
 <g id="Camada_x0020_1">
  <metadata id="CorelCorpID_0Corel-Layer"/>
  <g id="_1964318050192">
   <path class="fil0" d="M0.01 -0.03c70.93,723.19 314.05,1960.45 635.1,2609.05 16.78,33.93 55.96,80.38 72.03,111.48 352.58,682.53 49.07,916.86 455.42,1658.52 502.64,917.36 90.39,88.53 875.66,2176.14 649.91,1271.3 1254.25,2215.92 1918.64,3505.64 17.49,41.36 48.09,85.74 65.31,127.43l1534.2 3477.49c190.55,447.78 -16.72,-50.38 198.48,379.8l4127.51 5895.77c1548.25,1825.14 624.12,310.34 1698.42,1964 131.04,201.81 367.39,489.25 500.78,655.76 162.13,202.41 44.48,72.84 270.77,307.49 27.54,28.58 74.59,62.03 102.41,90.33l2031.65 2208.98c25.63,30.61 63.12,73.45 88.64,104.16 578.49,695.6 485.86,766.36 1171.02,949.32 270.28,-563.3 264.76,-553.46 -528.6,-1398.95l-2716.32 -3066.39c-1192.38,-1468.52 -2104.76,-2375.81 -3047.31,-4084.72l-1576.55 -2085.81c-245.64,-377.34 -223.73,-419.74 -397.23,-759.32l-1652.02 -2974.14c-85.25,-172.68 -305.26,-518.43 -428.05,-728.49 -232.79,-398.43 -269.3,-406.85 -419.85,-736.69 -218.09,-477.89 -212.19,-476.79 -447.99,-901.29 -124.43,-224 -270.01,-539.58 -385.48,-771.06l-1357.97 -2605.17 -1207.42 -2726.92c-223.55,-524.28 -166.18,-331.27 -409.41,-747.13 -643.02,-1099.33 -731.44,-1884.87 -1171.84,-2635.28z"/>
   <path class="fil0" d="M17288.12 27377.82c-1003.47,0 -2133.45,-220.72 -3044.58,-425.04 -448.54,-100.55 -766.2,-271.16 -1355.94,-384.93 -2064.5,-398.27 -491.77,-495.98 -1960.45,-153.78 477.66,651.93 -140.88,170.83 688.82,467.67l5569.25 1329.11c678.33,9.78 330.67,69.51 1066.65,130.77l69.4 -152.08c4.32,-13.06 22.24,-72.68 27.82,-89.62 6.23,-18.96 21.31,-79.18 28.52,-101.37 260.23,-799.48 -73.55,-2008.32 -339.46,-2696.16l-942.82 -4092.75 -578.27 0c-238.48,1023.69 105.09,2441.61 423.84,3238.52 201.7,504.22 178.2,1146.92 302.47,1626.23 151.53,584.72 644.99,1303.43 44.75,1303.43z"/>
  </g>
 </g>
</svg>
