<?xml version="1.0"?>
<svg xmlns="http://www.w3.org/2000/svg" xmlns:xlink="http://www.w3.org/1999/xlink" xmlns:svgjs="http://svgjs.com/svgjs" version="1.1" width="512" height="512" x="0" y="0" viewBox="0 0 512 512" style="enable-background:new 0 0 512 512" xml:space="preserve" class=""><g>
<g xmlns="http://www.w3.org/2000/svg">
	<g>
		<g>
			<polygon points="353.574,176.526 313.496,175.056 304.807,412.34 344.885,413.804    " fill="#0a5e78" data-original="#000000" style="" class=""/>
			<rect x="235.948" y="175.791" width="40.104" height="237.285" fill="#0a5e78" data-original="#000000" style="" class=""/>
			<polygon points="207.186,412.334 198.497,175.049 158.419,176.52 167.109,413.804    " fill="#0a5e78" data-original="#000000" style="" class=""/>
			<path d="M17.379,76.867v40.104h41.789L92.32,493.706C93.229,504.059,101.899,512,112.292,512h286.74     c10.394,0,19.07-7.947,19.972-18.301l33.153-376.728h42.464V76.867H17.379z M380.665,471.896H130.654L99.426,116.971h312.474     L380.665,471.896z" fill="#0a5e78" data-original="#000000" style="" class=""/>
		</g>
	</g>
</g>
<g xmlns="http://www.w3.org/2000/svg">
	<g>
		<path d="M321.504,0H190.496c-18.428,0-33.42,14.992-33.42,33.42v63.499h40.104V40.104h117.64v56.815h40.104V33.42    C354.924,14.992,339.932,0,321.504,0z" fill="#0a5e78" data-original="#000000" style="" class=""/>
	</g>
</g>
<g xmlns="http://www.w3.org/2000/svg">
</g>
<g xmlns="http://www.w3.org/2000/svg">
</g>
<g xmlns="http://www.w3.org/2000/svg">
</g>
<g xmlns="http://www.w3.org/2000/svg">
</g>
<g xmlns="http://www.w3.org/2000/svg">
</g>
<g xmlns="http://www.w3.org/2000/svg">
</g>
<g xmlns="http://www.w3.org/2000/svg">
</g>
<g xmlns="http://www.w3.org/2000/svg">
</g>
<g xmlns="http://www.w3.org/2000/svg">
</g>
<g xmlns="http://www.w3.org/2000/svg">
</g>
<g xmlns="http://www.w3.org/2000/svg">
</g>
<g xmlns="http://www.w3.org/2000/svg">
</g>
<g xmlns="http://www.w3.org/2000/svg">
</g>
<g xmlns="http://www.w3.org/2000/svg">
</g>
<g xmlns="http://www.w3.org/2000/svg">
</g>
</g></svg>
