<?xml version="1.0" encoding="UTF-8"?>
<!DOCTYPE svg PUBLIC "-//W3C//DTD SVG 1.1//EN" "http://www.w3.org/Graphics/SVG/1.1/DTD/svg11.dtd">
<!-- Creator: CorelDRAW 2018 (64 Bit) -->
<svg xmlns="http://www.w3.org/2000/svg" xml:space="preserve" width="135.467mm" height="135.467mm" version="1.1" style="shape-rendering:geometricPrecision; text-rendering:geometricPrecision; image-rendering:optimizeQuality; fill-rule:evenodd; clip-rule:evenodd"
viewBox="0 0 13546.7 13546.7"
 xmlns:xlink="http://www.w3.org/1999/xlink"
 xmlns:svgjs="http://svgjs.com/svgjs">
 <defs>
  <style type="text/css">
   <![CDATA[
    .fil1 {fill:#F1F2F2}
    .fil0 {fill:#FF0029}
   ]]>
  </style>
 </defs>
 <g id="Camada_x0020_1">
  <metadata id="CorelCorpID_0Corel-Layer"/>
  <g id="_1695366301200">
   <circle class="fil0" cx="6773.35" cy="6773.35" r="6773.35"/>
   <path class="fil1" d="M6773.35 6306.22c257.97,0 467.13,-209.16 467.13,-467.13l0 -4204.14c0,-257.97 -209.16,-467.13 -467.13,-467.13 -257.97,0 -467.13,209.16 -467.13,467.13l0 4204.14c0,257.97 209.16,467.13 467.13,467.13zm0 0z" data-original="#f1f2f2"/>
   <path class="fil1" d="M8854.21 2853.18c-129.33,-69.91 -283.97,-75.38 -417.86,-14.71 -133.89,60.79 -231.62,180.65 -264.24,324l0 3.08c-45.16,205.51 52.8,415.92 239.27,513.77 1423.28,752.47 2150.54,2378.17 1762.9,3940.81 -387.64,1562.64 -1790.39,2659.97 -3400.35,2659.97 -1609.96,0 -3012.71,-1097.34 -3400.35,-2659.97 -387.64,-1562.64 339.62,-3188.34 1763.01,-3940.81 186.46,-97.74 284.43,-308.15 239.38,-513.77l0 -2.85c-32.27,-143.13 -129.44,-262.99 -262.99,-323.89 -133.43,-61.01 -287.62,-56.11 -416.95,13.23 -1800.42,955.24 -2718.71,3013.97 -2226.61,4991.73 492.1,1977.87 2268.23,3366.14 4306.44,3366.14 2038.09,0 3814.22,-1388.26 4306.32,-3366.14 492.1,-1977.76 -426.18,-4036.49 -2226.61,-4991.73l-1.36 1.14zm0 0z" data-original="#f1f2f2"/>
  </g>
 </g>
</svg>
